<svg width="423" height="590" viewBox="0 0 423 590" fill="none" xmlns="http://www.w3.org/2000/svg">
<g filter="url(#filter0_d_31_82)">
<rect x="411.472" y="-15" width="111" height="724.66" transform="rotate(33.7379 411.472 -15)" fill="#2342CD"/>
</g>
<path d="M135.28 489.657L131.546 487.261L142.834 469.666L146.569 472.062L142.361 478.621L160.051 489.97L157.178 494.447L139.488 483.098L135.28 489.657ZM167.752 477.965L164.638 482.819L147.959 461.678L151.704 455.841L177.867 462.2L174.752 467.054L154.781 461.817L154.673 461.984L167.752 477.965ZM159.137 472.866L166.492 461.4L170.028 463.669L162.672 475.134L159.137 472.866ZM180.466 458.148L159.041 444.403L161.947 439.874L171.394 445.934L171.575 445.652L167.075 431.881L170.558 426.452L175.05 440.557L192.043 440.103L188.567 445.522L175.993 445.739L177.283 449.713L183.372 453.619L180.466 458.148ZM175.923 418.09L197.347 431.835L194.441 436.365L173.017 422.62L175.923 418.09ZM190.755 394.971L212.18 408.716L209.67 412.628L190.205 413.298L190.105 413.455L203.589 422.106L200.683 426.636L179.259 412.891L181.809 408.915L201.216 408.312L201.337 408.124L187.863 399.479L190.755 394.971ZM210.141 379.992C209.538 379.812 208.956 379.729 208.395 379.743C207.828 379.753 207.285 379.863 206.767 380.072C206.246 380.27 205.756 380.566 205.296 380.96C204.841 381.347 204.426 381.834 204.05 382.419C203.347 383.514 203.002 384.651 203.013 385.83C203.029 387.002 203.409 388.152 204.153 389.278C204.89 390.401 206.005 391.441 207.497 392.398C208.99 393.356 210.404 393.944 211.741 394.161C213.078 394.379 214.288 394.25 215.372 393.774C216.448 393.293 217.349 392.487 218.074 391.357C218.731 390.332 219.112 389.341 219.214 388.383C219.314 387.413 219.153 386.522 218.729 385.709C218.31 384.889 217.644 384.186 216.731 383.6L217.457 382.766L213.914 388.29L210.503 386.102L216.255 377.137L218.954 378.868C220.837 380.076 222.2 381.512 223.043 383.175C223.879 384.833 224.215 386.595 224.053 388.46C223.883 390.32 223.221 392.149 222.067 393.949C220.778 395.957 219.203 397.438 217.342 398.39C215.474 399.337 213.448 399.711 211.263 399.51C209.076 399.298 206.852 398.467 204.593 397.018C202.856 395.904 201.469 394.659 200.431 393.285C199.391 391.899 198.69 390.445 198.327 388.922C197.965 387.4 197.925 385.874 198.209 384.342C198.492 382.811 199.088 381.338 199.996 379.922C200.775 378.709 201.677 377.693 202.704 376.875C203.724 376.053 204.814 375.443 205.975 375.045C207.14 374.641 208.331 374.465 209.548 374.517C210.758 374.565 211.94 374.855 213.094 375.389L210.141 379.992ZM226.239 339.661L247.664 353.406L245.154 357.318L225.69 357.988L225.589 358.145L239.073 366.796L236.167 371.326L214.743 357.581L217.293 353.606L236.7 353.002L236.821 352.814L223.347 344.17L226.239 339.661ZM251.01 348.19L229.585 334.445L238.847 320.009L242.582 322.405L236.226 332.312L241.331 335.587L247.21 326.423L250.945 328.819L245.066 337.983L250.181 341.265L256.564 331.316L260.299 333.712L251.01 348.19ZM266.621 323.857L241.264 316.242L244.438 311.294L261.6 317.298L261.714 317.121L249.338 303.658L252.056 299.421L269.477 305.089L269.597 304.901L256.955 291.784L260.13 286.836L277.621 306.711L274.789 311.126L258.164 306.219L258.057 306.387L269.453 319.443L266.621 323.857ZM287.577 260.557L284.638 265.139C283.991 264.842 283.355 264.675 282.729 264.638C282.096 264.596 281.486 264.672 280.899 264.866C280.312 265.061 279.761 265.367 279.246 265.785C278.736 266.196 278.285 266.709 277.891 267.322C277.179 268.431 276.835 269.574 276.858 270.75C276.874 271.922 277.26 273.07 278.015 274.195C278.764 275.315 279.88 276.351 281.366 277.304C282.893 278.284 284.322 278.881 285.652 279.094C286.986 279.301 288.183 279.162 289.241 278.679C290.299 278.197 291.174 277.415 291.868 276.334C292.257 275.727 292.537 275.114 292.708 274.495C292.883 273.869 292.947 273.255 292.899 272.654C292.845 272.048 292.68 271.47 292.404 270.918C292.132 270.36 291.743 269.845 291.239 269.373L294.199 264.805C295.106 265.554 295.865 266.459 296.474 267.52C297.081 268.568 297.489 269.721 297.697 270.977C297.903 272.221 297.863 273.525 297.579 274.889C297.293 276.241 296.709 277.603 295.827 278.977C294.602 280.888 293.073 282.32 291.242 283.271C289.415 284.216 287.402 284.598 285.204 284.419C283.011 284.232 280.749 283.391 278.42 281.897C276.083 280.398 274.378 278.683 273.302 276.753C272.227 274.823 271.744 272.83 271.853 270.773C271.954 268.712 272.609 266.74 273.817 264.857C274.614 263.615 275.526 262.576 276.555 261.74C277.588 260.897 278.704 260.278 279.901 259.885C281.092 259.487 282.334 259.339 283.627 259.44C284.925 259.534 286.242 259.907 287.577 260.557ZM304.53 264.768L283.105 251.023L286.011 246.494L303.701 257.843L309.594 248.658L313.329 251.054L304.53 264.768ZM297.68 228.306L319.104 242.051L316.198 246.581L294.774 232.836L297.68 228.306ZM322.44 236.852L301.016 223.107L310.277 208.67L314.012 211.066L307.656 220.973L312.761 224.248L318.64 215.084L322.375 217.48L316.496 226.644L321.611 229.926L327.994 219.977L331.729 222.373L322.44 236.852ZM325.029 185.676L346.454 199.421L343.944 203.333L324.479 204.003L324.379 204.16L337.863 212.811L334.957 217.341L313.533 203.596L316.083 199.621L335.49 199.017L335.611 198.829L322.137 190.185L325.029 185.676ZM331.586 183.673L327.852 181.277L339.14 163.681L342.875 166.077L338.667 172.636L356.357 183.985L353.484 188.462L335.795 177.113L331.586 183.673ZM355.562 151.641C354.665 151.183 353.779 151.122 352.905 151.457C352.03 151.791 351.244 152.503 350.546 153.591C350.072 154.33 349.776 155.021 349.658 155.665C349.534 156.304 349.566 156.875 349.754 157.38C349.947 157.878 350.273 158.274 350.733 158.569C351.108 158.829 351.494 158.964 351.892 158.973C352.294 158.975 352.701 158.887 353.111 158.707C353.515 158.523 353.925 158.274 354.343 157.961C354.753 157.644 355.161 157.285 355.565 156.885L357.26 155.255C358.069 154.455 358.898 153.776 359.748 153.219C360.598 152.661 361.461 152.26 362.337 152.015C363.213 151.769 364.097 151.711 364.989 151.84C365.885 151.963 366.782 152.307 367.679 152.872C368.985 153.72 369.907 154.785 370.445 156.065C370.98 157.333 371.114 158.758 370.847 160.339C370.579 161.909 369.885 163.566 368.766 165.31C367.657 167.039 366.425 168.376 365.072 169.319C363.723 170.255 362.299 170.749 360.799 170.801C359.296 170.841 357.763 170.384 356.199 169.43L359.012 165.047C359.761 165.459 360.493 165.638 361.207 165.584C361.918 165.519 362.593 165.257 363.231 164.8C363.866 164.332 364.434 163.707 364.935 162.926C365.428 162.159 365.743 161.421 365.882 160.713C366.026 159.998 366 159.356 365.804 158.787C365.608 158.218 365.251 157.768 364.735 157.437C364.254 157.128 363.758 157.012 363.247 157.088C362.74 157.156 362.197 157.389 361.618 157.785C361.043 158.174 360.411 158.699 359.722 159.359L357.639 161.316C356.041 162.841 354.439 163.826 352.833 164.273C351.228 164.72 349.636 164.431 348.057 163.409C346.755 162.584 345.843 161.511 345.321 160.192C344.804 158.866 344.667 157.414 344.91 155.838C345.154 154.261 345.777 152.692 346.779 151.13C347.799 149.54 348.962 148.326 350.266 147.49C351.575 146.646 352.927 146.204 354.322 146.164C355.716 146.123 357.058 146.502 358.348 147.299L355.562 151.641Z" fill="white"/>
<defs>
<filter id="filter0_d_31_82" x="0" y="-20" width="512.778" height="682.267" filterUnits="userSpaceOnUse" color-interpolation-filters="sRGB">
<feFlood flood-opacity="0" result="BackgroundImageFix"/>
<feColorMatrix in="SourceAlpha" type="matrix" values="0 0 0 0 0 0 0 0 0 0 0 0 0 0 0 0 0 0 127 0" result="hardAlpha"/>
<feMorphology radius="5" operator="dilate" in="SourceAlpha" result="effect1_dropShadow_31_82"/>
<feOffset dy="4"/>
<feGaussianBlur stdDeviation="2"/>
<feComposite in2="hardAlpha" operator="out"/>
<feColorMatrix type="matrix" values="0 0 0 0 0 0 0 0 0 0 0 0 0 0 0 0 0 0 0.5 0"/>
<feBlend mode="normal" in2="BackgroundImageFix" result="effect1_dropShadow_31_82"/>
<feBlend mode="normal" in="SourceGraphic" in2="effect1_dropShadow_31_82" result="shape"/>
</filter>
</defs>
</svg>
